<?xml version="1.0" encoding="UTF-8"?>
<svg width="18px" height="13px" viewBox="0 0 18 13" version="1.1" xmlns="http://www.w3.org/2000/svg" xmlns:xlink="http://www.w3.org/1999/xlink">
    <!-- Generator: Sketch 47.1 (45422) - http://www.bohemiancoding.com/sketch -->
    <title>3d-icon</title>
    <desc>Created with Sketch.</desc>
    <defs></defs>
    <g id="Page-1" stroke="none" stroke-width="1" fill="none" fill-rule="evenodd">
        <g id="App-Appointment" transform="translate(-54.000000, -314.000000)" fill="#56E676">
            <path d="M60.8310011,320.283198 C60.4060011,319.297198 59.6410011,318.651198 58.4170011,318.549198 C58.3320011,318.532198 58.2980011,318.481198 58.3490011,318.430198 L60.9500011,315.591198 C61.0350011,315.506198 61.0690011,315.387198 61.0690011,315.268198 L61.0690011,314.282198 C61.0690011,314.129198 60.9670011,314.027198 60.8140011,314.027198 L54.3880011,314.027198 C54.2350011,314.027198 54.1330011,314.129198 54.1330011,314.282198 L54.1330011,315.200198 C54.1330011,315.353198 54.2350011,315.455198 54.3880011,315.455198 L58.8930011,315.455198 C58.9610011,315.455198 58.9780011,315.489198 58.9270011,315.557198 L56.0710011,318.600198 C55.9690011,318.719198 55.9520011,318.821198 56.0540011,318.957198 L56.5980011,319.620198 C56.7000011,319.739198 56.8190011,319.756198 56.9550011,319.688198 C57.1590011,319.586198 57.3290011,319.535198 57.5500011,319.535198 C58.3660011,319.535198 58.9440011,319.909198 59.2330011,320.623198 C59.4200011,321.031198 59.5220011,321.541198 59.5220011,322.170198 C59.5220011,322.646198 59.4370011,323.105198 59.2840011,323.496198 C59.0120011,324.244198 58.4170011,324.635198 57.5670011,324.635198 C56.6320011,324.635198 55.9860011,324.091198 55.7650011,323.275198 C55.6970011,323.054198 55.6630011,322.731198 55.6290011,322.459198 C55.6290011,322.289198 55.5270011,322.204198 55.3740011,322.204198 L54.2350011,322.204198 C54.0820011,322.204198 53.9800011,322.289198 53.9800011,322.459198 C53.9970011,322.867198 54.0650011,323.309198 54.2010011,323.717198 C54.6600011,325.128198 55.9010011,326.063198 57.5670011,326.063198 C59.2330011,326.063198 60.4060011,325.247198 60.8990011,323.870198 C61.0520011,323.394198 61.1710011,322.867198 61.1710011,322.204198 C61.1710011,321.456198 61.0520011,320.810198 60.8310011,320.283198 Z M63.8060011,325.927198 C63.6530011,325.927198 63.5510011,325.825198 63.5510011,325.672198 L63.5510011,314.282198 C63.5510011,314.129198 63.6530011,314.027198 63.8060011,314.027198 L67.8350011,314.027198 C70.1980011,314.027198 71.7110011,315.353198 71.7110011,317.427198 L71.7110011,322.527198 C71.7110011,324.601198 70.1980011,325.927198 67.8350011,325.927198 L63.8060011,325.927198 Z M65.1830011,324.431198 C65.1830011,324.482198 65.2170011,324.516198 65.2680011,324.516198 L67.9030011,324.516198 C69.2290011,324.516198 70.0620011,323.649198 70.0790011,322.289198 L70.0790011,317.665198 C70.0790011,316.305198 69.2460011,315.438198 67.9030011,315.438198 L65.2680011,315.438198 C65.2170011,315.438198 65.1830011,315.472198 65.1830011,315.523198 L65.1830011,324.431198 Z" id="3d-icon"></path>
        </g>
    </g>
</svg>