<?xml version="1.0" encoding="UTF-8"?>
<svg width="25px" height="25px" viewBox="0 0 25 25" version="1.1" xmlns="http://www.w3.org/2000/svg" xmlns:xlink="http://www.w3.org/1999/xlink">
    <!-- Generator: Sketch 47.1 (45422) - http://www.bohemiancoding.com/sketch -->
    <title>arrow-right-icon</title>
    <desc>Created with Sketch.</desc>
    <defs>
        <linearGradient x1="50%" y1="0%" x2="50%" y2="97.5526148%" id="linearGradient-1">
            <stop stop-color="#74EF9A" offset="0%"></stop>
            <stop stop-color="#65E788" offset="39.5069726%"></stop>
            <stop stop-color="#4EDA6D" offset="100%"></stop>
        </linearGradient>
    </defs>
    <g id="Page-1" stroke="none" stroke-width="1" fill="none" fill-rule="evenodd">
        <g id="App-Welcome" transform="translate(-267.000000, -939.000000)" fill="url(#linearGradient-1)">
            <path d="M279.958146,963.350441 C273.326434,963.350441 267.95037,957.974377 267.95037,951.342665 C267.95037,944.710953 273.326434,939.334888 279.958146,939.334888 C286.589858,939.334888 291.965923,944.710953 291.965923,951.342665 C291.965923,957.974377 286.589858,963.350441 279.958146,963.350441 Z M278.345907,956.481524 C278.504747,956.481524 278.67947,956.417988 278.806542,956.290916 L282.999905,952.097553 C283.126977,951.970481 283.190513,951.811642 283.190513,951.636918 C283.190513,951.462195 283.126977,951.303355 282.999905,951.176283 L278.806542,946.98292 C278.552399,946.728777 278.139416,946.728777 277.885273,946.98292 C277.631129,947.237063 277.631129,947.650046 277.885273,947.904189 L281.618002,951.636918 L277.885273,955.369647 C277.631129,955.62379 277.631129,956.036773 277.885273,956.290916 C278.012344,956.417988 278.171184,956.481524 278.345907,956.481524 Z" id="arrow-right-icon"></path>
        </g>
    </g>
</svg>