<?xml version="1.0" encoding="UTF-8"?>
<svg width="61px" height="62px" viewBox="0 0 61 62" version="1.1" xmlns="http://www.w3.org/2000/svg" xmlns:xlink="http://www.w3.org/1999/xlink">
    <!-- Generator: Sketch 47.1 (45422) - http://www.bohemiancoding.com/sketch -->
    <title>Dennis Logo</title>
    <defs>
        <linearGradient x1="85.5665683%" y1="74.1418336%" x2="23.699137%" y2="16.6971581%" id="linearGradient-1">
            <stop stop-color="#4FE4E2" offset="0%"></stop>
            <stop stop-color="#96F3A9" offset="100%"></stop>
        </linearGradient>
    </defs>
    <g id="Page-1" stroke="none" stroke-width="1" fill="none" fill-rule="evenodd">
        <g id="Overview:-2nd" transform="translate(-157.000000, -35.000000)">
            <g id="Group" transform="translate(157.000000, 35.000000)">
                <path d="M30.4053882,0.84850612 C25.3472225,0.880869243 20.2998444,2.82519489 16.4448254,6.6808485 L16.4448254,6.6808485 L5.91158082,17.2140931 C-1.8650872,24.9907611 -1.8650872,37.6161864 5.91158082,45.3928544 L5.91158082,45.3928544 L16.4448254,55.926099 C24.2202243,63.7027671 36.8475533,63.7027671 44.6229522,55.926099 L44.6229522,55.926099 L55.1555622,45.3928544 C59.0181961,41.5308551 60.9625217,36.4726894 60.9885392,31.4069088 L60.9885392,31.4069088 L60.9885392,31.2006733 C60.9625217,26.1342581 59.0181961,21.0760924 55.1555622,17.2140931 L55.1555622,17.2140931 L44.6229522,6.6808485 C40.7679332,2.82519489 35.7205552,0.880869243 30.6623894,0.84850612 L30.6623894,0.84850612 L30.4053882,0.84850612 Z" id="Fill-1" fill="url(#linearGradient-1)"></path>
                <path d="M43.3586952,21.2896105 C41.1323093,14.0659242 34.8923064,15.9555854 30.4106893,19.6513154 C25.9290721,15.9555854 19.6884806,14.0659242 17.4626833,21.2896105 C15.2368861,28.5132968 18.6806613,36.7448025 21.9566628,43.1296205 C25.2326643,49.5132611 25.6947777,44.7667382 26.366461,40.3151437 C27.038733,35.8629606 30.4106893,35.2330735 30.4106893,35.2330735 C30.4106893,35.2330735 33.7826455,35.8629606 34.4549175,40.3151437 C35.1266009,44.7667382 35.5887143,49.5132611 38.8647158,43.1296205 C42.1407173,36.7448025 45.5844924,28.5132968 43.3586952,21.2896105" id="Fill-1" fill="#FFFFFF"></path>
                <path d="M30.4105715,19.651492 L30.4105715,35.2332501 C30.4105715,35.2332501 33.7825278,35.8631372 34.4547998,40.3153203 C35.1264831,44.7669148 35.5885965,49.5134377 38.864598,43.1297971 C42.1405995,36.7449791 45.5843747,28.5134734 43.3585775,21.2897871 C41.1321915,14.0655121 34.8921887,15.955762 30.4105715,19.651492" id="Fill-4" fill="#F2F2F2"></path>
            </g>
        </g>
    </g>
</svg>