<?xml version="1.0" encoding="UTF-8"?>
<svg width="25px" height="26px" viewBox="0 0 25 26" version="1.1" xmlns="http://www.w3.org/2000/svg" xmlns:xlink="http://www.w3.org/1999/xlink">
    <!-- Generator: Sketch 47.1 (45422) - http://www.bohemiancoding.com/sketch -->
    <title>dennis-icon-default</title>
    <desc>Created with Sketch.</desc>
    <defs></defs>
    <g id="Symbols" stroke="none" stroke-width="1" fill="none" fill-rule="evenodd">
        <g id="Bottom-Navigation-Home" transform="translate(-34.000000, -17.000000)" fill="#B4E3EC">
            <path d="M52.909589,21.1765118 L55.4871432,23.754066 C57.5871781,25.8541009 58.175266,26.9016521 58.5505035,28.1396657 C58.9257409,29.3776792 58.9257409,30.6437681 58.5505035,31.8817816 C58.175266,33.1197952 57.5871781,34.1673464 55.4871432,36.2673813 L52.909589,38.8449355 C50.8095541,40.9449704 49.7620029,41.5330583 48.5239893,41.9082958 C47.2859758,42.2835332 46.0198869,42.2835332 44.7818734,41.9082958 C43.5438598,41.5330583 42.4963086,40.9449704 40.3962737,38.8449355 L37.8187195,36.2673813 C35.7186846,34.1673464 35.1305967,33.1197952 34.7553593,31.8817816 C34.3801218,30.6437681 34.3801218,29.3776792 34.7553593,28.1396657 C35.1305967,26.9016521 35.7186846,25.8541009 37.8187195,23.754066 L40.3962737,21.1765118 C42.4963086,19.0764769 43.5438598,18.488389 44.7818734,18.1131516 C46.0198869,17.7379141 47.2859758,17.7379141 48.5239893,18.1131516 C49.7620029,18.488389 50.8095541,19.0764769 52.909589,21.1765118 Z M51.5780626,26.1805447 C50.7193993,23.3945431 48.3127807,24.1233399 46.584329,25.5486938 C44.8558773,24.1233399 42.4490317,23.3945431 41.5905954,26.1805447 C40.732159,28.9665463 42.0603401,32.1412396 43.3238148,34.6037099 C44.5872896,37.0657262 44.7655156,35.2351067 45.0245677,33.5182341 C45.2838468,31.8011344 46.584329,31.5582021 46.584329,31.5582021 C46.584329,31.5582021 47.8848112,31.8011344 48.1440903,33.5182341 C48.4031424,35.2351067 48.5813684,37.0657262 49.8448432,34.6037099 C51.1083179,32.1412396 52.436499,28.9665463 51.5780626,26.1805447 Z" id="dennis-icon-default"></path>
        </g>
    </g>
</svg>