<?xml version="1.0" encoding="UTF-8"?>
<svg width="66px" height="66px" viewBox="0 0 66 66" version="1.1" xmlns="http://www.w3.org/2000/svg" xmlns:xlink="http://www.w3.org/1999/xlink">
    <!-- Generator: Sketch 47.1 (45422) - http://www.bohemiancoding.com/sketch -->
    <title>Group 2</title>
    <desc>Created with Sketch.</desc>
    <defs></defs>
    <g id="Page-1" stroke="none" stroke-width="1" fill="none" fill-rule="evenodd">
        <g id="App-History" transform="translate(-30.000000, -717.000000)">
            <g id="Group-2" transform="translate(30.000000, 717.000000)">
                <path d="M33.1645978,61.0182714 C48.9047131,61.0182714 61.6645978,48.2583867 61.6645978,32.5182714 C61.6645978,16.778156 48.9047131,4.01827138 33.1645978,4.01827138 C17.4244824,4.01827138 4.66459777,16.778156 4.66459777,32.5182714 C4.66459777,48.2583867 17.4244824,61.0182714 33.1645978,61.0182714 Z M33.1645978,65.0182714 C15.2153434,65.0182714 0.664597773,50.4675257 0.664597773,32.5182714 C0.664597773,14.569017 15.2153434,0.0182713758 33.1645978,0.0182713758 C51.1138521,0.0182713758 65.6645978,14.569017 65.6645978,32.5182714 C65.6645978,50.4675257 51.1138521,65.0182714 33.1645978,65.0182714 Z" id="Oval-9" fill="#EAEFF1" fill-rule="nonzero"></path>
                <path d="M19.7670082,40.4817286 L21.2070082,40.4817286 C21.3670082,40.4817286 21.4870082,40.4217286 21.5470082,40.2417286 L26.0270082,28.3217286 C26.0670082,28.1817286 26.0870082,28.1017286 26.0870082,27.9617286 L26.0870082,26.7817286 C26.0870082,26.6017286 25.9670082,26.4817286 25.7870082,26.4817286 L17.7670082,26.4817286 C17.5870082,26.4817286 17.4670082,26.6017286 17.4670082,26.7817286 L17.4670082,29.0617286 C17.4670082,29.2417286 17.5870082,29.3617286 17.7670082,29.3617286 L18.7670082,29.3617286 C18.9470082,29.3617286 19.0670082,29.2417286 19.0670082,29.0617286 L19.0670082,28.2417286 C19.0670082,28.1817286 19.1070082,28.1417286 19.1670082,28.1417286 L23.9470082,28.1417286 C24.0070082,28.1417286 24.0470082,28.1817286 24.0270082,28.2617286 L19.5470082,40.1417286 C19.4670082,40.3617286 19.5470082,40.4817286 19.7670082,40.4817286 Z M35.8270082,34.2817286 C35.3670082,32.5817286 33.9070082,31.6217286 32.0670082,31.6217286 C31.1670082,31.6217286 30.3070082,31.8817286 29.6470082,32.4417286 C29.5870082,32.4817286 29.5270082,32.4817286 29.5270082,32.3817286 L29.5470082,28.2417286 C29.5470082,28.1617286 29.5870082,28.1417286 29.6470082,28.1417286 L35.2070082,28.1417286 C35.3870082,28.1417286 35.5070082,28.0217286 35.5070082,27.8417286 L35.5070082,26.7817286 C35.5070082,26.6017286 35.3870082,26.4817286 35.2070082,26.4817286 L27.9270082,26.4817286 C27.7470082,26.4817286 27.6270082,26.6017286 27.6270082,26.7817286 L27.6270082,34.3817286 C27.6270082,34.5617286 27.7470082,34.6817286 27.9270082,34.6817286 L29.3470082,34.6817286 C29.5070082,34.6817286 29.6270082,34.6017286 29.7070082,34.4417286 C30.0470082,33.6817286 30.8870082,33.3017286 31.8070082,33.3017286 C32.9270082,33.3017286 33.7670082,33.8417286 33.9670082,34.8817286 C34.0670082,35.3617286 34.1070082,35.8017286 34.0870082,36.1417286 C34.0870082,36.4217286 34.0670082,36.9017286 33.9270082,37.2617286 C33.6870082,38.3017286 32.9070082,38.9617286 31.8070082,38.9617286 C30.7070082,38.9617286 29.9470082,38.3217286 29.6870082,37.3617286 C29.6470082,37.2617286 29.6270082,37.1417286 29.6070082,37.0417286 C29.5670082,36.8617286 29.4670082,36.7617286 29.2870082,36.7617286 L27.9270082,36.7617286 C27.7270082,36.7617286 27.6070082,36.8817286 27.6270082,37.0817286 C27.6670082,37.3617286 27.7470082,37.6417286 27.8470082,37.9417286 C28.3870082,39.5617286 29.8470082,40.6217286 31.8070082,40.6217286 C33.7870082,40.6217286 35.3070082,39.5417286 35.8070082,37.8417286 C35.9870082,37.2417286 36.0470082,36.6617286 36.0470082,36.1017286 C36.0470082,35.6217286 36.0070082,35.0017286 35.8270082,34.2817286 Z M41.5670082,32.2217286 C39.9070082,32.2217286 38.5670082,30.9017286 38.5670082,29.2417286 C38.5670082,27.6017286 39.9070082,26.3017286 41.5670082,26.3017286 C43.2070082,26.3017286 44.5270082,27.6217286 44.5270082,29.2417286 C44.5270082,30.9017286 43.2070082,32.2217286 41.5670082,32.2217286 Z M41.1070082,40.4817286 C40.8870082,40.4817286 40.7870082,40.3417286 40.9070082,40.1217286 L48.3670082,26.6817286 C48.4470082,26.5217286 48.5670082,26.4817286 48.7270082,26.4817286 L49.5070082,26.4817286 C49.7270082,26.4817286 49.8270082,26.6217286 49.7070082,26.8417286 L42.2470082,40.2817286 C42.1670082,40.4417286 42.0470082,40.4817286 41.8870082,40.4817286 L41.1070082,40.4817286 Z M41.5670082,31.1417286 C42.6070082,31.1417286 43.4270082,30.3017286 43.4270082,29.2417286 C43.4270082,28.2017286 42.5870082,27.3617286 41.5670082,27.3617286 C40.5070082,27.3617286 39.6670082,28.2017286 39.6670082,29.2417286 C39.6670082,30.3017286 40.5070082,31.1417286 41.5670082,31.1417286 Z M49.1870082,40.6617286 C47.5270082,40.6617286 46.1870082,39.3417286 46.1870082,37.7017286 C46.1870082,36.0617286 47.5270082,34.7417286 49.1870082,34.7417286 C50.8270082,34.7417286 52.1470082,36.0617286 52.1470082,37.7017286 C52.1470082,39.3417286 50.8270082,40.6617286 49.1870082,40.6617286 Z M49.1870082,39.6017286 C50.2270082,39.6017286 51.0470082,38.7417286 51.0470082,37.7017286 C51.0470082,36.6617286 50.2070082,35.8217286 49.1870082,35.8217286 C48.1270082,35.8217286 47.2870082,36.6617286 47.2870082,37.7017286 C47.2870082,38.7617286 48.1270082,39.6017286 49.1870082,39.6017286 Z" id="75%" fill="#FAB25F"></path>
                <path d="M33.1645978,0.0182713758 C51.1138521,0.0182713758 65.6645978,14.569017 65.6645978,32.5182714 C65.6645978,50.4675257 51.1138521,65.0182714 33.1645978,65.0182714 C15.2153434,65.0182714 0.664597773,50.4675257 0.664597773,32.5182714 L4.66459777,32.5182714 C4.66459777,48.2583867 17.4244824,61.0182714 33.1645978,61.0182714 C48.9047131,61.0182714 61.6645978,48.2583867 61.6645978,32.5182714 C61.6645978,16.778156 48.9047131,4.01827138 33.1645978,4.01827138 L33.1645978,0.0182713758 Z M33.1645978,0.0182713758 C51.1138521,0.0182713758 65.6645978,14.569017 65.6645978,32.5182714 C65.6645978,50.4675257 51.1138521,65.0182714 33.1645978,65.0182714 C15.2153434,65.0182714 0.664597773,50.4675257 0.664597773,32.5182714 L4.66459777,32.5182714 C4.66459777,48.2583867 17.4244824,61.0182714 33.1645978,61.0182714 C48.9047131,61.0182714 61.6645978,48.2583867 61.6645978,32.5182714 C61.6645978,16.778156 48.9047131,4.01827138 33.1645978,4.01827138 L33.1645978,0.0182713758 Z" id="Oval-9-Copy" fill="#FAB25F" fill-rule="nonzero"></path>
            </g>
        </g>
    </g>
</svg>