<?xml version="1.0" encoding="UTF-8"?>
<svg width="19px" height="23px" viewBox="0 0 19 23" version="1.1" xmlns="http://www.w3.org/2000/svg" xmlns:xlink="http://www.w3.org/1999/xlink">
    <!-- Generator: Sketch 47.1 (45422) - http://www.bohemiancoding.com/sketch -->
    <title>schedulevisit-icon-default</title>
    <desc>Created with Sketch.</desc>
    <defs></defs>
    <g id="Symbols" stroke="none" stroke-width="1" fill="none" fill-rule="evenodd">
        <g id="Bottom-Navigation-Home" transform="translate(-318.000000, -19.000000)" fill="#B4E3EC">
            <path d="M333.243613,21.357293 L334.248524,21.357293 C335.350381,21.357293 336.243613,22.2555053 336.243613,23.3480881 L336.243613,41.357293 L318.243613,41.357293 L318.243613,23.3480881 C318.243613,22.2486023 319.136236,21.357293 320.238703,21.357293 L321.243613,21.357293 L321.243613,19.357293 L323.243613,19.357293 L323.243613,21.357293 L331.243613,21.357293 L331.243613,19.357293 L333.243613,19.357293 L333.243613,21.357293 Z M318.243613,28.357293 L336.243613,28.357293 L336.243613,26.357293 L318.243613,26.357293 L318.243613,28.357293 Z M322.243613,31.357293 L322.243613,33.357293 L324.243613,33.357293 L324.243613,31.357293 L322.243613,31.357293 Z M322.243613,35.357293 L322.243613,37.357293 L324.243613,37.357293 L324.243613,35.357293 L322.243613,35.357293 Z M326.243613,31.357293 L326.243613,33.357293 L328.243613,33.357293 L328.243613,31.357293 L326.243613,31.357293 Z M326.243613,35.357293 L326.243613,37.357293 L328.243613,37.357293 L328.243613,35.357293 L326.243613,35.357293 Z M330.243613,31.357293 L330.243613,33.357293 L332.243613,33.357293 L332.243613,31.357293 L330.243613,31.357293 Z" id="schedulevisit-icon-default"></path>
        </g>
    </g>
</svg>