<?xml version="1.0" encoding="UTF-8"?>
<svg width="66px" height="29px" viewBox="0 0 66 29" version="1.1" xmlns="http://www.w3.org/2000/svg" xmlns:xlink="http://www.w3.org/1999/xlink">
    <!-- Generator: Sketch 47.1 (45422) - http://www.bohemiancoding.com/sketch -->
    <title>session-time-icon</title>
    <desc>Created with Sketch.</desc>
    <defs></defs>
    <g id="Page-1" stroke="none" stroke-width="1" fill="none" fill-rule="evenodd">
        <g id="App-History" transform="translate(-155.000000, -726.000000)" fill="#56E676">
            <g id="session-time-icon" transform="translate(155.000000, 726.000000)">
                <path d="M1.01257062,29 L16.2525706,29 C16.5325706,29 16.7325706,28.8 16.7325706,28.52 L16.7325706,27.6 C16.7325706,27.32 16.5325706,27.12 16.2525706,27.12 L3.45257062,27.12 C3.33257062,27.12 3.29257062,27.04 3.37257062,26.92 C6.33257062,23.24 9.17257062,19.6 11.9325706,16.04 C14.4525706,12.76 15.7725706,9.96 15.7725706,7.6 C15.7725706,3.56 12.7325706,0.68 8.05257062,0.68 C3.65257062,0.68 0.532570622,3.36 0.492570622,7.4 L0.492570622,8.84 C0.492570622,9.12 0.692570622,9.32 0.972570622,9.32 L2.13257062,9.32 C2.41257062,9.32 2.61257062,9.12 2.61257062,8.84 L2.61257062,7.64 C2.57257062,4.6 4.77257062,2.56 8.05257062,2.56 C11.3725706,2.56 13.6125706,4.6 13.6125706,7.64 C13.6125706,9.6 12.2525706,12.24 9.85257062,15.36 C6.89257062,19.16 3.81257062,23.08 0.732570622,26.92 C0.572570622,27.12 0.532570622,27.28 0.532570622,27.52 L0.532570622,28.52 C0.532570622,28.8 0.732570622,29 1.01257062,29 Z M25.8525706,14.8 C27.0525706,14.8 28.0525706,13.84 28.0525706,12.68 C28.0525706,11.52 27.0125706,10.6 25.8525706,10.6 C24.7325706,10.6 23.6925706,11.52 23.6925706,12.68 C23.6925706,13.84 24.6125706,14.8 25.8525706,14.8 Z M25.8525706,28.36 C27.0525706,28.36 28.0525706,27.4 28.0525706,26.24 C28.0525706,25.08 27.0125706,24.16 25.8525706,24.16 C24.7325706,24.16 23.6925706,25.08 23.6925706,26.24 C23.6925706,27.4 24.6125706,28.36 25.8525706,28.36 Z M39.8125706,1.16 L35.2125706,3.68 C35.0125706,3.8 34.8925706,4.04 34.8925706,4.28 L34.8925706,5.04 C34.8925706,5.4 35.1325706,5.56 35.4525706,5.4 L39.8925706,3.36 C39.9725706,3.32 40.0925706,3.36 40.0925706,3.48 L40.0925706,28.52 C40.0925706,28.8 40.2925706,29 40.5725706,29 L41.7325706,29 C42.0125706,29 42.2125706,28.8 42.2125706,28.52 L42.2125706,1.48 C42.2125706,1.2 42.0125706,1 41.7325706,1 L40.4125706,1 C40.2125706,1 40.0125706,1.04 39.8125706,1.16 Z M64.7725706,19.24 L63.1725706,19.24 C63.0925706,19.24 63.0125706,19.16 63.0125706,19.08 L63.0125706,12.36 C63.0125706,12.08 62.8125706,11.88 62.5325706,11.88 L61.3725706,11.88 C61.0925706,11.88 60.8925706,12.08 60.8925706,12.36 L60.8925706,19.08 C60.8925706,19.16 60.8125706,19.24 60.7325706,19.24 L50.9725706,19.24 C50.8525706,19.24 50.8125706,19.12 50.8525706,19.04 L59.0525706,1.56 C59.2125706,1.2 59.0525706,1 58.6925706,1 L57.5325706,1 C57.2925706,1 57.0925706,1.12 56.9725706,1.36 L48.5725706,19.2 C48.4925706,19.4 48.4525706,19.6 48.4525706,19.8 L48.4525706,20.68 C48.4525706,20.96 48.6525706,21.16 48.9325706,21.16 L60.7325706,21.16 C60.8125706,21.16 60.8925706,21.24 60.8925706,21.32 L60.8925706,28.52 C60.8925706,28.8 61.0925706,29 61.3725706,29 L62.5325706,29 C62.8125706,29 63.0125706,28.8 63.0125706,28.52 L63.0125706,21.32 C63.0125706,21.24 63.0925706,21.16 63.1725706,21.16 L64.7725706,21.16 C65.0525706,21.16 65.2525706,20.96 65.2525706,20.68 L65.2525706,19.72 C65.2525706,19.44 65.0525706,19.24 64.7725706,19.24 Z" id="2:14"></path>
            </g>
        </g>
    </g>
</svg>