<?xml version="1.0" encoding="UTF-8"?>
<svg width="65px" height="50px" viewBox="0 0 65 50" version="1.1" xmlns="http://www.w3.org/2000/svg" xmlns:xlink="http://www.w3.org/1999/xlink">
    <!-- Generator: Sketch 47.1 (45422) - http://www.bohemiancoding.com/sketch -->
    <title>sessions-week-icon</title>
    <desc>Created with Sketch.</desc>
    <defs></defs>
    <g id="Page-1" stroke="none" stroke-width="1" fill="none" fill-rule="evenodd">
        <g id="App-History" transform="translate(-280.000000, -727.000000)">
            <g id="sessions-week-icon" transform="translate(279.000000, 727.000000)">
                <path d="M4.21142938,49.5857286 C6.17442938,49.5857286 7.35742938,48.5847286 7.35742938,47.1027286 C7.35742938,45.5167286 5.97942938,44.9447286 4.53642938,44.3857286 C3.00242938,43.8007286 2.32642938,43.5147286 2.32642938,42.6437286 C2.32642938,41.8117286 2.93742938,41.3567286 4.01642938,41.3567286 C5.32942938,41.3567286 6.04442938,42.0587286 6.04442938,42.9297286 L6.04442938,43.0857286 C6.04442938,43.1897286 6.12242938,43.2547286 6.23942938,43.2547286 L7.08442938,43.2547286 C7.20142938,43.2547286 7.27942938,43.1767286 7.27942938,43.0597286 L7.27942938,42.8647286 C7.27942938,41.3177286 6.01842938,40.2777286 4.06842938,40.2777286 C2.26142938,40.2777286 1.10442938,41.1617286 1.10442938,42.6697286 C1.10442938,44.2557286 2.40442938,44.7757286 3.88642938,45.3477286 C5.40742938,45.9587286 6.10942938,46.3227286 6.10942938,47.1417286 C6.10942938,47.9217286 5.53742938,48.5067286 4.30242938,48.5067286 C3.00242938,48.5067286 2.20942938,47.8437286 2.20942938,46.9857286 L2.20942938,46.7387286 C2.20942938,46.6217286 2.13142938,46.5437286 2.01442938,46.5437286 L1.18242938,46.5437286 C1.06542938,46.5437286 0.987429378,46.6217286 0.987429378,46.7387286 L0.987429378,47.0507286 C0.987429378,48.5847286 2.24842938,49.5857286 4.21142938,49.5857286 Z M16.0924294,41.2657286 L16.0924294,40.5767286 C16.0924294,40.4597286 16.0144294,40.3817286 15.8974294,40.3817286 L10.2424294,40.3817286 C10.1254294,40.3817286 10.0474294,40.4597286 10.0474294,40.5767286 L10.0474294,49.2867286 C10.0474294,49.4037286 10.1254294,49.4817286 10.2424294,49.4817286 L15.8974294,49.4817286 C16.0144294,49.4817286 16.0924294,49.4037286 16.0924294,49.2867286 L16.0924294,48.5977286 C16.0924294,48.4807286 16.0144294,48.4027286 15.8974294,48.4027286 L11.3604294,48.4027286 C11.3214294,48.4027286 11.2954294,48.3767286 11.2954294,48.3377286 L11.2954294,45.5037286 C11.2954294,45.4647286 11.3214294,45.4387286 11.3604294,45.4387286 L14.4544294,45.4387286 C14.5714294,45.4387286 14.6494294,45.3607286 14.6494294,45.2437286 L14.6494294,44.5547286 C14.6494294,44.4377286 14.5714294,44.3597286 14.4544294,44.3597286 L11.3604294,44.3597286 C11.3214294,44.3597286 11.2954294,44.3337286 11.2954294,44.2947286 L11.2954294,41.5257286 C11.2954294,41.4867286 11.3214294,41.4607286 11.3604294,41.4607286 L15.8974294,41.4607286 C16.0144294,41.4607286 16.0924294,41.3827286 16.0924294,41.2657286 Z M21.6294294,49.5857286 C23.5924294,49.5857286 24.7754294,48.5847286 24.7754294,47.1027286 C24.7754294,45.5167286 23.3974294,44.9447286 21.9544294,44.3857286 C20.4204294,43.8007286 19.7444294,43.5147286 19.7444294,42.6437286 C19.7444294,41.8117286 20.3554294,41.3567286 21.4344294,41.3567286 C22.7474294,41.3567286 23.4624294,42.0587286 23.4624294,42.9297286 L23.4624294,43.0857286 C23.4624294,43.1897286 23.5404294,43.2547286 23.6574294,43.2547286 L24.5024294,43.2547286 C24.6194294,43.2547286 24.6974294,43.1767286 24.6974294,43.0597286 L24.6974294,42.8647286 C24.6974294,41.3177286 23.4364294,40.2777286 21.4864294,40.2777286 C19.6794294,40.2777286 18.5224294,41.1617286 18.5224294,42.6697286 C18.5224294,44.2557286 19.8224294,44.7757286 21.3044294,45.3477286 C22.8254294,45.9587286 23.5274294,46.3227286 23.5274294,47.1417286 C23.5274294,47.9217286 22.9554294,48.5067286 21.7204294,48.5067286 C20.4204294,48.5067286 19.6274294,47.8437286 19.6274294,46.9857286 L19.6274294,46.7387286 C19.6274294,46.6217286 19.5494294,46.5437286 19.4324294,46.5437286 L18.6004294,46.5437286 C18.4834294,46.5437286 18.4054294,46.6217286 18.4054294,46.7387286 L18.4054294,47.0507286 C18.4054294,48.5847286 19.6664294,49.5857286 21.6294294,49.5857286 Z M30.2734294,49.5857286 C32.2364294,49.5857286 33.4194294,48.5847286 33.4194294,47.1027286 C33.4194294,45.5167286 32.0414294,44.9447286 30.5984294,44.3857286 C29.0644294,43.8007286 28.3884294,43.5147286 28.3884294,42.6437286 C28.3884294,41.8117286 28.9994294,41.3567286 30.0784294,41.3567286 C31.3914294,41.3567286 32.1064294,42.0587286 32.1064294,42.9297286 L32.1064294,43.0857286 C32.1064294,43.1897286 32.1844294,43.2547286 32.3014294,43.2547286 L33.1464294,43.2547286 C33.2634294,43.2547286 33.3414294,43.1767286 33.3414294,43.0597286 L33.3414294,42.8647286 C33.3414294,41.3177286 32.0804294,40.2777286 30.1304294,40.2777286 C28.3234294,40.2777286 27.1664294,41.1617286 27.1664294,42.6697286 C27.1664294,44.2557286 28.4664294,44.7757286 29.9484294,45.3477286 C31.4694294,45.9587286 32.1714294,46.3227286 32.1714294,47.1417286 C32.1714294,47.9217286 31.5994294,48.5067286 30.3644294,48.5067286 C29.0644294,48.5067286 28.2714294,47.8437286 28.2714294,46.9857286 L28.2714294,46.7387286 C28.2714294,46.6217286 28.1934294,46.5437286 28.0764294,46.5437286 L27.2444294,46.5437286 C27.1274294,46.5437286 27.0494294,46.6217286 27.0494294,46.7387286 L27.0494294,47.0507286 C27.0494294,48.5847286 28.3104294,49.5857286 30.2734294,49.5857286 Z M36.3044294,49.4817286 L37.1624294,49.4817286 C37.2794294,49.4817286 37.3574294,49.4037286 37.3574294,49.2867286 L37.3574294,40.5767286 C37.3574294,40.4597286 37.2794294,40.3817286 37.1624294,40.3817286 L36.3044294,40.3817286 C36.1874294,40.3817286 36.1094294,40.4597286 36.1094294,40.5767286 L36.1094294,49.2867286 C36.1094294,49.4037286 36.1874294,49.4817286 36.3044294,49.4817286 Z M43.4534294,49.5987286 C41.5294294,49.5987286 40.2424294,48.3507286 40.2424294,46.4787286 L40.2424294,43.3847286 C40.2424294,41.5257286 41.5294294,40.2777286 43.4534294,40.2777286 C45.3904294,40.2777286 46.6774294,41.5257286 46.6774294,43.3847286 L46.6774294,46.4787286 C46.6774294,48.3507286 45.3904294,49.5987286 43.4534294,49.5987286 Z M43.4534294,48.5197286 C44.6364294,48.5197286 45.4294294,47.7267286 45.4294294,46.5307286 L45.4294294,43.3717286 C45.4294294,42.1627286 44.6364294,41.3567286 43.4534294,41.3567286 C42.2834294,41.3567286 41.4904294,42.1627286 41.4904294,43.3717286 L41.4904294,46.5307286 C41.4904294,47.7267286 42.2834294,48.5197286 43.4534294,48.5197286 Z M49.7704294,49.4817286 L50.6284294,49.4817286 C50.7454294,49.4817286 50.8234294,49.4037286 50.8234294,49.2867286 L50.8104294,42.9037286 C50.8104294,42.8387286 50.8624294,42.8257286 50.8884294,42.8777286 L54.8664294,49.3517286 C54.9184294,49.4427286 54.9964294,49.4817286 55.1004294,49.4817286 L55.9454294,49.4817286 C56.0624294,49.4817286 56.1404294,49.4037286 56.1404294,49.2867286 L56.1404294,40.5767286 C56.1404294,40.4597286 56.0624294,40.3817286 55.9454294,40.3817286 L55.0874294,40.3817286 C54.9704294,40.3817286 54.8924294,40.4597286 54.8924294,40.5767286 L54.8924294,46.9207286 C54.8924294,46.9857286 54.8404294,46.9987286 54.8144294,46.9467286 L50.8364294,40.5117286 C50.7844294,40.4207286 50.7064294,40.3817286 50.6024294,40.3817286 L49.7704294,40.3817286 C49.6534294,40.3817286 49.5754294,40.4597286 49.5754294,40.5767286 L49.5754294,49.2867286 C49.5754294,49.4037286 49.6534294,49.4817286 49.7704294,49.4817286 Z M62.0674294,49.5857286 C64.0304294,49.5857286 65.2134294,48.5847286 65.2134294,47.1027286 C65.2134294,45.5167286 63.8354294,44.9447286 62.3924294,44.3857286 C60.8584294,43.8007286 60.1824294,43.5147286 60.1824294,42.6437286 C60.1824294,41.8117286 60.7934294,41.3567286 61.8724294,41.3567286 C63.1854294,41.3567286 63.9004294,42.0587286 63.9004294,42.9297286 L63.9004294,43.0857286 C63.9004294,43.1897286 63.9784294,43.2547286 64.0954294,43.2547286 L64.9404294,43.2547286 C65.0574294,43.2547286 65.1354294,43.1767286 65.1354294,43.0597286 L65.1354294,42.8647286 C65.1354294,41.3177286 63.8744294,40.2777286 61.9244294,40.2777286 C60.1174294,40.2777286 58.9604294,41.1617286 58.9604294,42.6697286 C58.9604294,44.2557286 60.2604294,44.7757286 61.7424294,45.3477286 C63.2634294,45.9587286 63.9654294,46.3227286 63.9654294,47.1417286 C63.9654294,47.9217286 63.3934294,48.5067286 62.1584294,48.5067286 C60.8584294,48.5067286 60.0654294,47.8437286 60.0654294,46.9857286 L60.0654294,46.7387286 C60.0654294,46.6217286 59.9874294,46.5437286 59.8704294,46.5437286 L59.0384294,46.5437286 C58.9214294,46.5437286 58.8434294,46.6217286 58.8434294,46.7387286 L58.8434294,47.0507286 C58.8434294,48.5847286 60.1044294,49.5857286 62.0674294,49.5857286 Z" id="sessions" fill="#9EC3CA"></path>
                <path d="M24.22,0.16 L19.62,2.68 C19.42,2.8 19.3,3.04 19.3,3.28 L19.3,4.04 C19.3,4.4 19.54,4.56 19.86,4.4 L24.3,2.36 C24.38,2.32 24.5,2.36 24.5,2.48 L24.5,27.52 C24.5,27.8 24.7,28 24.98,28 L26.14,28 C26.42,28 26.62,27.8 26.62,27.52 L26.62,0.48 C26.62,0.2 26.42,0 26.14,0 L24.82,0 C24.62,0 24.42,0.04 24.22,0.16 Z M47.46,14.8 C46.46,12.36 44.42,10.92 41.38,10.8 C41.22,10.8 41.18,10.68 41.26,10.6 L47.94,2.16 C48.06,2 48.14,1.8 48.14,1.56 L48.14,0.48 C48.14,0.2 47.94,0 47.66,0 L33.54,0 C33.26,0 33.06,0.2 33.06,0.48 L33.06,1.4 C33.06,1.68 33.26,1.88 33.54,1.88 L45.26,1.88 C45.38,1.88 45.42,2 45.34,2.08 L38.22,10.92 C38.06,11.12 38.06,11.4 38.22,11.6 L38.74,12.24 C38.9,12.44 39.14,12.52 39.42,12.44 C39.78,12.32 40.1,12.24 40.54,12.24 C42.94,12.24 44.58,13.32 45.42,15.36 C45.9,16.48 46.14,17.88 46.14,19.52 C46.14,20.8 45.94,22 45.62,22.96 C44.86,25.24 43.14,26.44 40.58,26.44 C37.74,26.44 35.82,24.72 35.26,22.24 C35.18,21.68 35.1,20.84 35.06,20.12 C35.06,19.8 34.86,19.64 34.58,19.64 L33.38,19.64 C33.1,19.64 32.9,19.8 32.9,20.12 C32.94,20.96 33.02,22.04 33.3,22.96 C34.18,26.16 36.82,28.32 40.58,28.32 C44.22,28.32 46.7,26.6 47.7,23.4 C48.06,22.32 48.26,21.04 48.26,19.56 C48.26,17.68 47.98,16.12 47.46,14.8 Z" id="13" fill="#56E676"></path>
            </g>
        </g>
    </g>
</svg>