<?xml version="1.0" encoding="UTF-8"?>
<svg width="18px" height="20px" viewBox="0 0 18 20" version="1.1" xmlns="http://www.w3.org/2000/svg" xmlns:xlink="http://www.w3.org/1999/xlink">
    <!-- Generator: Sketch 47.1 (45422) - http://www.bohemiancoding.com/sketch -->
    <title>teeth-icon</title>
    <desc>Created with Sketch.</desc>
    <defs></defs>
    <g id="Page-1" stroke="none" stroke-width="1" fill="none" fill-rule="evenodd">
        <g id="App-Appointment" transform="translate(-53.000000, -409.000000)" fill-rule="nonzero" fill="#16C1FF">
            <path d="M53.6633254,412.962613 C52.4821343,416.796095 53.5657538,420.901296 56.3080153,426.245873 C57.4278687,428.428027 58.5507007,429.388807 59.7008829,428.072797 C60.1900128,427.513147 60.3440708,426.839772 60.6383962,424.852279 C60.6630569,424.685483 60.6630569,424.685483 60.6876689,424.519439 C60.702296,424.42121 60.702296,424.42121 60.7169833,424.323552 C60.8347522,423.543617 61.1225715,423.010932 61.5240088,422.649882 C61.7169248,422.476374 61.9050003,422.365117 62.048845,422.302188 C62.1926896,422.365117 62.3807651,422.476374 62.5736811,422.649882 C62.9751184,423.010932 63.2629377,423.543617 63.380723,424.32366 C63.3953939,424.42121 63.3953939,424.42121 63.410021,424.519439 C63.434633,424.685483 63.434633,424.685483 63.4592937,424.852279 C63.7536191,426.839772 63.9076771,427.513147 64.396807,428.072797 C65.5469892,429.388807 66.6698212,428.428027 67.7896404,426.245939 C70.5319361,420.901296 71.6155556,416.796095 70.4343645,412.962613 L68.523039,413.551539 C69.503469,416.733464 68.5297004,420.422504 66.0102361,425.332856 C65.8884013,425.570265 65.7749008,425.776587 65.6713681,425.951727 C65.6024451,425.605309 65.5243586,425.144357 65.4377177,424.559297 C65.4131673,424.393245 65.4131673,424.393245 65.3882826,424.225363 C65.3734024,424.125433 65.3734024,424.125433 65.3583215,424.025157 C65.1711722,422.785744 64.656535,421.833274 63.9111123,421.162845 C63.3096584,420.621901 62.6969845,420.361924 62.2324703,420.275152 L62.048845,420.240851 L61.8652196,420.275152 C61.4007055,420.361924 60.7880315,420.621901 60.1865777,421.162845 C59.4411549,421.833274 58.9265177,422.785744 58.7393848,424.025049 C58.7242875,424.125433 58.7242875,424.125433 58.7094073,424.225363 C58.6845226,424.393245 58.6845226,424.393245 58.6599723,424.559297 C58.5733315,425.144356 58.4952451,425.605308 58.4263223,425.951725 C58.3227816,425.776572 58.2092699,425.570228 58.0874196,425.33279 C55.5679895,420.422504 54.5942209,416.733464 55.5746509,413.551539 C56.4242947,410.794073 58.665912,410.823438 61.4126263,413.088494 L62.048845,413.613147 L62.6850636,413.088494 C65.4317948,410.823424 67.6731669,410.794062 68.5230609,413.551611 L70.4343426,412.962541 C69.1273301,408.721835 65.5344414,408.524074 62.0488435,411.052553 C58.5631996,408.524063 54.9700171,408.721826 53.6633254,412.962613 Z" id="teeth-icon"></path>
        </g>
    </g>
</svg>